<svg xmlns="http://www.w3.org/2000/svg" viewBox="0 0 100 100" width="100" height="100">
  <!-- Círculo branco de fundo -->
  <circle cx="50" cy="50" r="45" fill="white" stroke="black" stroke-width="2"/>
  
  <!-- Espiral roxa central -->
  <path d="M50 50 Q45 45 40 50 Q35 55 30 50 Q25 45 20 50 Q15 55 10 50 Q5 45 0 50 Q5 55 10 50 Q15 45 20 50 Q25 55 30 50 Q35 45 40 50 Q45 55 50 50" 
        fill="none" 
        stroke="#8B5CF6" 
        stroke-width="8" 
        stroke-linecap="round"/>
  
  <!-- Círculos roxos pequenos -->
  <circle cx="25" cy="50" r="4" fill="#8B5CF6" stroke="#4C1D95" stroke-width="1"/>
  <circle cx="65" cy="35" r="4" fill="#8B5CF6" stroke="#4C1D95" stroke-width="1"/>
  <circle cx="65" cy="65" r="4" fill="#8B5CF6" stroke="#4C1D95" stroke-width="1"/>
  
  <!-- Linhas curvas de movimento -->
  <path d="M35 25 Q40 20 45 25" stroke="black" stroke-width="2" fill="none" stroke-linecap="round"/>
  <path d="M35 75 Q40 80 45 75" stroke="black" stroke-width="2" fill="none" stroke-linecap="round"/>
</svg>
